<?xml version="1.0" encoding="UTF-8" standalone="no"?>
<!DOCTYPE svg PUBLIC "-//W3C//DTD SVG 1.1//EN" "http://www.w3.org/Graphics/SVG/1.1/DTD/svg11.dtd">
<svg xmlns="http://www.w3.org/2000/svg" version="1.1" viewBox="0 0 1024 1024" width="1024.0pt" height="1024.0pt">
<path d="M 0.00 0.00 L 1024.00 0.00 L 1024.00 1024.00 L 0.00 1024.00 L 0.00 0.00 Z" fill="#ffffff" />
<path d="M 438.00 47.99 C 489.00 48.03 541.10 47.97 592.05 48.01 C 600.36 47.85 607.63 54.72 607.94 63.02 C 608.09 79.32 607.95 95.68 608.00 112.00 C 632.34 112.00 656.67 112.00 681.00 112.00 C 686.03 112.03 691.16 111.67 696.06 113.00 C 710.00 116.49 720.18 129.60 720.00 143.99 C 720.00 413.32 720.00 682.66 720.00 952.00 C 719.93 958.04 720.49 963.72 718.57 969.55 C 715.55 979.46 707.46 987.59 697.53 990.56 C 691.67 992.51 686.07 991.93 680.00 992.00 C 565.33 992.00 450.66 992.00 335.99 992.00 C 322.48 992.16 309.90 983.14 305.69 970.32 C 303.48 964.16 304.06 958.40 304.00 952.00 C 304.00 738.67 304.00 525.33 304.00 312.00 C 304.07 308.13 303.69 304.06 304.41 300.26 C 306.13 292.79 313.34 287.40 321.01 288.01 C 329.28 288.37 336.15 295.67 335.99 303.95 C 336.01 522.63 335.99 741.31 336.00 960.00 C 453.33 960.00 570.67 960.00 688.00 960.00 C 688.00 688.00 688.00 416.00 688.00 144.00 C 570.67 144.00 453.33 144.00 336.00 144.00 C 335.99 176.02 336.02 208.03 335.99 240.05 C 336.06 245.77 332.87 251.13 327.93 253.95 C 322.03 257.36 314.15 256.50 309.17 251.83 C 305.85 248.73 303.99 244.62 304.01 240.05 C 303.98 210.40 304.01 180.66 304.00 151.00 C 304.01 144.98 303.60 139.46 305.69 133.68 C 309.76 121.23 321.85 112.25 334.97 112.03 C 361.95 111.96 389.00 112.03 416.00 112.00 C 416.02 95.99 415.97 79.95 416.01 63.95 C 415.90 57.71 419.75 51.96 425.37 49.38 C 429.16 47.56 433.89 48.05 438.00 47.99 Z" fill="#000000" />
<path d="M 448.09 80.09 C 490.58 79.88 533.46 80.05 576.00 80.00 C 576.00 90.67 576.00 101.33 576.00 112.00 C 533.33 112.00 490.67 112.00 448.00 112.00 C 448.07 101.37 447.86 90.71 448.09 80.09 Z" fill="#ffffff" />
<path d="M 379.47 176.61 C 382.79 175.73 386.58 176.03 390.00 175.99 C 473.32 176.02 556.73 175.97 640.05 176.01 C 648.77 175.86 656.10 183.27 655.99 191.97 C 656.01 351.99 656.00 512.03 655.99 672.05 C 656.09 678.55 651.91 684.55 645.90 686.93 C 638.76 689.73 630.46 687.07 626.42 680.52 C 623.21 675.64 624.12 670.54 623.99 665.00 C 624.01 512.67 624.00 360.34 624.00 208.00 C 549.33 208.00 474.67 208.00 400.00 208.00 C 400.00 432.00 400.00 656.00 400.00 880.00 C 474.67 880.00 549.33 880.00 624.00 880.00 C 624.01 831.98 623.99 783.97 624.01 735.95 C 623.84 727.27 631.33 719.82 640.00 719.98 C 648.67 719.82 656.16 727.27 655.99 735.95 C 656.00 789.30 656.01 842.70 655.99 896.05 C 656.15 903.38 650.68 910.12 643.54 911.61 C 640.12 912.25 636.47 911.96 633.00 912.01 C 549.99 911.98 466.97 912.02 383.97 911.99 C 377.92 912.02 372.46 908.62 369.71 903.28 C 367.38 899.02 368.10 893.71 367.99 889.00 C 368.01 660.00 368.00 431.00 368.00 202.00 C 368.05 198.01 367.82 193.97 368.14 189.99 C 368.69 183.82 373.55 178.29 379.47 176.61 Z" fill="#000000" />
<path d="M 544.00 415.99 C 551.67 415.82 558.59 421.72 559.79 429.27 C 560.54 433.81 559.45 438.05 556.74 441.74 C 538.54 467.21 520.35 492.68 502.16 518.16 C 499.80 521.35 497.49 524.57 495.37 527.92 C 516.93 528.12 538.49 527.92 560.05 528.01 C 567.40 527.85 574.09 533.32 575.64 540.46 C 576.64 545.21 575.61 549.84 572.74 553.75 C 547.46 589.12 522.17 624.52 496.91 659.91 C 494.74 662.87 492.63 666.47 489.73 668.74 C 484.18 673.10 475.82 673.11 470.27 668.75 C 465.47 665.11 463.17 659.02 464.23 653.10 C 464.90 648.69 468.12 645.16 470.59 641.59 C 487.68 617.68 504.77 593.77 521.84 569.84 C 524.20 566.65 526.51 563.44 528.63 560.08 C 509.09 559.90 489.54 560.04 470.00 560.01 C 465.15 559.93 460.41 560.58 456.08 557.94 C 450.52 554.76 447.31 548.54 448.10 542.15 C 448.58 537.00 451.78 533.64 454.59 529.59 C 480.02 494.02 505.42 458.42 530.85 422.84 C 533.91 418.56 538.69 415.92 544.00 415.99 Z" fill="#000000" />
</svg>