<?xml version="1.0" encoding="UTF-8" standalone="no"?>
<!DOCTYPE svg PUBLIC "-//W3C//DTD SVG 1.1//EN" "http://www.w3.org/Graphics/SVG/1.1/DTD/svg11.dtd">
<svg xmlns="http://www.w3.org/2000/svg" version="1.1" viewBox="0 0 666 216" width="666.0pt" height="216.0pt">
<path d="M 0.00 0.00 L 114.39 0.00 L 114.16 0.11 C 108.13 3.87 101.85 3.41 95.00 4.09 C 85.26 4.84 75.70 3.60 66.14 1.80 C 62.94 2.95 59.89 4.24 56.89 5.85 C 50.33 9.23 43.35 12.22 37.23 16.34 C 30.77 20.52 24.63 24.70 19.49 30.50 C 17.33 32.90 16.65 36.73 15.66 39.76 C 11.68 53.82 7.26 67.77 3.64 81.93 C 2.54 85.56 0.98 89.02 0.00 92.69 L 0.00 0.00 Z" fill="none" />
<path d="M 114.39 0.00 L 115.46 0.00 L 115.70 0.20 C 118.69 2.67 121.86 4.88 125.26 6.74 C 131.26 10.10 137.20 13.56 143.33 16.68 C 148.11 19.34 153.78 21.50 157.48 25.57 C 159.70 28.05 161.76 30.99 162.75 34.20 C 164.87 43.47 167.79 52.60 170.35 61.76 C 172.62 69.47 174.59 77.19 177.36 84.74 C 177.63 86.12 178.82 88.17 177.18 89.10 C 171.97 93.07 165.13 95.36 159.27 98.37 C 153.64 101.22 148.12 102.77 141.74 102.28 C 140.63 99.15 139.72 96.00 138.21 93.03 C 137.81 102.68 138.02 112.34 137.29 121.98 C 136.88 129.85 135.96 137.15 136.94 145.00 C 137.80 152.06 138.92 158.99 138.98 166.13 C 142.33 174.56 142.51 183.14 144.38 192.00 C 144.98 197.31 146.69 202.16 148.66 207.09 C 137.28 210.48 124.73 211.37 112.99 213.00 C 100.80 214.90 88.16 215.10 75.97 216.00 L 50.93 216.00 C 45.61 215.34 40.29 215.61 34.97 215.17 C 32.80 212.25 29.38 208.96 29.86 205.04 C 30.24 194.45 29.72 183.44 31.64 173.04 C 33.08 164.00 33.47 155.08 34.15 146.01 C 35.25 134.13 36.85 122.17 39.29 110.49 C 40.12 106.39 40.34 102.25 40.02 98.08 C 38.71 100.25 37.67 102.54 36.41 104.74 C 33.05 104.48 29.71 103.40 26.48 102.47 C 17.59 99.44 8.75 96.29 0.00 92.91 L 0.00 92.69 C 0.98 89.02 2.54 85.56 3.64 81.93 C 7.26 67.77 11.68 53.82 15.66 39.76 C 16.65 36.73 17.33 32.90 19.49 30.50 C 24.63 24.70 30.77 20.52 37.23 16.34 C 43.35 12.22 50.33 9.23 56.89 5.85 C 59.89 4.24 62.94 2.95 66.14 1.80 C 75.70 3.60 85.26 4.84 95.00 4.09 C 101.85 3.41 108.13 3.87 114.16 0.11 L 114.39 0.00 Z" fill="#000000" />
<path d="M 115.46 0.00 L 666.00 0.00 L 666.00 216.00 L 75.97 216.00 C 88.16 215.10 100.80 214.90 112.99 213.00 C 124.73 211.37 137.28 210.48 148.66 207.09 C 146.69 202.16 144.98 197.31 144.38 192.00 C 142.51 183.14 142.33 174.56 138.98 166.13 C 138.92 158.99 137.80 152.06 136.94 145.00 C 135.96 137.15 136.88 129.85 137.29 121.98 C 138.02 112.34 137.81 102.68 138.21 93.03 C 139.72 96.00 140.63 99.15 141.74 102.28 C 148.12 102.77 153.64 101.22 159.27 98.37 C 165.13 95.36 171.97 93.07 177.18 89.10 C 178.82 88.17 177.63 86.12 177.36 84.74 C 174.59 77.19 172.62 69.47 170.35 61.76 C 167.79 52.60 164.87 43.47 162.75 34.20 C 161.76 30.99 159.70 28.05 157.48 25.57 C 153.78 21.50 148.11 19.34 143.33 16.68 C 137.20 13.56 131.26 10.10 125.26 6.74 C 121.86 4.88 118.69 2.67 115.70 0.20 L 115.46 0.00 Z" fill="#ffffff" />
<path d="M 211.43 33.00 C 225.29 33.00 239.14 33.00 253.00 32.99 C 262.27 33.21 271.13 34.77 278.79 40.33 C 292.80 49.98 297.17 70.05 291.40 85.53 C 287.84 95.97 278.97 103.67 268.51 106.80 C 258.20 109.77 246.02 108.85 235.36 109.00 C 235.36 120.67 235.36 132.33 235.36 144.00 C 227.38 144.00 219.41 144.00 211.43 144.00 C 211.43 107.00 211.43 70.00 211.43 33.00 Z" fill="#000000" />
<path d="M 304.64 33.00 C 312.88 33.00 321.12 33.00 329.36 33.00 C 329.35 52.67 329.38 72.34 329.34 92.01 C 329.03 102.00 329.23 112.00 329.17 122.00 C 344.84 122.00 360.51 122.00 376.17 122.00 C 376.17 129.33 376.17 136.67 376.17 144.00 C 352.33 144.00 328.49 144.00 304.64 144.00 C 304.64 107.00 304.64 70.00 304.64 33.00 Z" fill="#000000" />
<path d="M 423.85 33.00 C 431.46 33.01 439.06 32.97 446.66 33.03 C 459.70 70.02 472.84 107.00 485.89 144.00 C 477.60 144.00 469.31 144.00 461.02 144.00 C 458.30 135.33 455.66 126.64 452.89 117.99 C 440.96 118.00 429.03 118.00 417.10 117.99 C 414.34 126.63 411.80 135.34 409.11 144.00 C 400.82 144.00 392.53 144.01 384.24 143.99 C 397.45 107.00 410.62 69.99 423.85 33.00 Z" fill="#000000" />
<path d="M 497.64 33.00 C 505.88 33.00 514.12 33.00 522.36 33.00 C 522.36 70.00 522.36 107.00 522.36 144.00 C 514.12 144.00 505.88 144.00 497.64 144.00 C 497.64 107.00 497.64 70.00 497.64 33.00 Z" fill="#000000" />
<path d="M 540.43 33.00 C 549.92 33.00 559.42 33.00 568.91 33.00 C 582.70 57.81 596.35 82.71 610.27 107.45 C 610.64 82.65 610.33 57.81 610.43 33.00 C 618.48 33.00 626.52 33.00 634.57 33.00 C 634.57 70.00 634.57 107.00 634.57 144.00 C 625.03 143.90 615.45 144.19 605.92 143.88 C 603.36 140.44 601.50 136.45 599.27 132.78 C 587.70 113.08 576.48 93.15 564.72 73.56 C 564.37 97.03 564.66 120.53 564.57 144.00 C 556.52 144.00 548.48 144.00 540.43 144.00 C 540.43 107.00 540.43 70.00 540.43 33.00 Z" fill="#000000" />
<path d="M 235.36 55.00 C 240.90 55.04 246.46 54.91 252.00 55.05 C 257.06 55.20 262.91 56.84 266.54 60.54 C 270.27 64.56 270.34 70.89 269.70 76.01 C 268.96 81.08 265.66 84.99 260.96 86.94 C 253.43 90.28 243.53 88.59 235.36 89.00 C 235.36 77.67 235.36 66.33 235.36 55.00 Z" fill="#ffffff" />
<path d="M 434.93 62.49 C 439.26 74.53 442.80 86.87 446.93 98.98 C 438.98 99.02 431.04 99.01 423.09 98.98 C 426.28 88.82 429.50 78.67 432.65 68.49 C 433.29 66.45 434.05 64.45 434.93 62.49 Z" fill="#ffffff" />
<path d="M 0.00 92.91 C 8.75 96.29 17.59 99.44 26.48 102.47 C 29.71 103.40 33.05 104.48 36.41 104.74 C 37.67 102.54 38.71 100.25 40.02 98.08 C 40.34 102.25 40.12 106.39 39.29 110.49 C 36.85 122.17 35.25 134.13 34.15 146.01 C 33.47 155.08 33.08 164.00 31.64 173.04 C 29.72 183.44 30.24 194.45 29.86 205.04 C 29.38 208.96 32.80 212.25 34.97 215.17 C 40.29 215.61 45.61 215.34 50.93 216.00 L 0.00 216.00 L 0.00 92.91 Z" fill="#ffffff" />
<path d="M 210.65 154.00 C 215.49 154.00 220.33 154.00 225.17 154.00 L 225.18 156.17 C 223.12 156.17 221.06 156.17 219.00 156.17 C 219.00 162.45 219.00 168.72 219.00 175.00 L 216.83 175.00 C 216.83 168.72 216.82 162.44 216.83 156.17 C 214.77 156.17 212.70 156.17 210.64 156.18 L 210.65 154.00 Z" fill="#000000" />
<path d="M 264.56 154.62 C 265.70 154.81 265.95 156.63 266.47 157.53 C 262.59 156.02 259.67 155.25 256.13 158.02 C 256.81 159.71 256.73 161.44 258.60 162.25 C 261.21 163.88 266.29 165.35 266.57 168.94 C 267.04 173.04 263.56 174.58 260.13 174.98 C 257.27 174.69 253.81 175.24 253.55 171.44 C 256.50 172.29 259.39 173.53 262.49 172.46 C 263.38 171.66 264.21 170.79 264.98 169.84 C 263.13 166.57 260.15 165.67 257.12 163.88 C 255.15 162.83 254.63 161.04 253.60 159.21 C 255.67 154.82 259.96 152.92 264.56 154.62 Z" fill="#000000" />
<path d="M 297.64 154.00 L 300.00 154.00 C 300.00 157.00 300.00 160.00 300.00 163.00 C 303.61 163.00 307.22 163.00 310.83 163.00 C 310.83 160.00 310.83 157.00 310.83 154.00 L 313.17 154.00 C 313.17 161.00 313.17 168.00 313.17 175.00 L 310.83 175.00 C 310.83 171.72 310.83 168.45 310.83 165.17 C 307.22 165.17 303.61 165.17 300.00 165.17 C 300.00 168.45 300.00 171.73 300.00 175.00 L 297.64 175.00 C 297.64 168.00 297.64 161.00 297.64 154.00 Z" fill="#000000" />
<path d="M 345.64 154.00 L 348.00 154.00 C 348.00 161.00 348.00 168.00 348.00 175.00 L 345.64 175.00 C 345.64 168.00 345.64 161.00 345.64 154.00 Z" fill="#000000" />
<path d="M 380.00 153.99 C 382.75 154.07 385.74 153.69 388.42 154.34 C 391.02 155.08 392.83 157.11 392.56 159.92 C 392.50 162.76 390.30 163.77 388.38 165.35 C 390.96 168.31 392.86 171.62 394.89 174.96 C 394.01 174.98 393.12 175.00 392.24 175.01 C 390.78 172.45 389.40 169.74 387.58 167.42 C 386.55 165.78 384.10 166.14 382.37 165.76 C 382.35 168.84 382.36 171.92 382.36 175.00 L 380.00 175.00 C 380.00 168.00 380.00 160.99 380.00 153.99 Z" fill="#000000" />
<path d="M 422.65 154.00 C 427.49 154.00 432.33 154.00 437.17 154.00 L 437.18 156.17 C 435.12 156.17 433.06 156.17 431.00 156.17 C 431.00 162.45 431.00 168.72 431.00 175.00 L 428.83 175.00 C 428.83 168.72 428.82 162.44 428.83 156.17 C 426.77 156.17 424.70 156.17 422.64 156.18 L 422.65 154.00 Z" fill="#000000" />
<path d="M 505.47 154.57 L 506.57 156.48 C 503.87 156.40 500.87 155.86 498.21 156.46 C 491.53 158.48 490.88 170.10 497.56 172.44 C 500.74 173.51 503.60 172.31 506.67 171.59 C 504.90 175.85 498.66 175.49 495.24 173.71 C 490.41 171.22 489.71 165.10 491.29 160.41 C 493.48 154.91 500.13 152.82 505.47 154.57 Z" fill="#000000" />
<path d="M 537.00 154.00 L 539.36 154.00 C 539.35 160.28 539.36 166.56 539.35 172.83 C 542.23 172.83 545.12 172.83 548.00 172.83 L 548.00 175.00 C 544.33 175.00 540.67 175.00 537.00 175.00 C 537.00 168.00 537.00 161.00 537.00 154.00 Z" fill="#000000" />
<path d="M 577.65 154.00 L 580.00 154.00 C 580.10 158.98 579.76 164.01 580.16 168.97 C 580.51 173.95 589.48 174.35 590.45 169.47 C 591.28 164.45 590.64 159.10 590.82 154.00 L 593.00 154.00 C 592.94 158.67 593.15 163.37 592.93 168.03 C 592.54 170.55 591.60 173.11 589.02 174.09 C 585.00 176.12 579.28 174.72 578.00 170.00 C 577.21 164.79 577.82 159.28 577.65 154.00 Z" fill="#000000" />
<path d="M 625.00 153.97 C 628.19 154.15 633.84 153.21 635.96 156.22 C 637.74 159.35 636.30 162.03 633.50 163.81 C 635.33 164.75 637.04 165.30 637.66 167.50 C 638.57 169.29 637.37 171.78 636.11 173.11 C 633.36 175.67 628.46 174.89 625.00 175.02 C 625.00 168.01 625.00 160.99 625.00 153.97 Z" fill="#000000" />
<path d="M 382.46 156.20 C 384.41 156.12 386.64 155.95 388.51 156.62 C 390.58 157.33 390.17 160.89 389.50 162.48 C 387.78 164.20 384.63 163.73 382.37 163.95 C 382.35 161.38 382.26 158.77 382.46 156.20 Z" fill="#ffffff" />
<path d="M 627.46 156.19 C 629.39 156.09 631.58 156.01 633.41 156.68 C 635.13 158.72 634.77 161.19 632.52 162.64 C 630.84 163.01 629.06 163.03 627.34 163.15 C 627.34 160.84 627.28 158.50 627.46 156.19 Z" fill="#ffffff" />
<path d="M 627.46 165.20 C 630.17 165.18 633.39 164.56 635.19 167.08 C 635.75 169.36 635.68 171.17 633.46 172.41 C 631.53 172.95 629.37 172.82 627.37 172.94 C 627.35 170.37 627.26 167.77 627.46 165.20 Z" fill="#ffffff" />
</svg>