<?xml version="1.0" encoding="UTF-8" standalone="no"?>
<!DOCTYPE svg PUBLIC "-//W3C//DTD SVG 1.1//EN" "http://www.w3.org/Graphics/SVG/1.1/DTD/svg11.dtd">
<svg xmlns="http://www.w3.org/2000/svg" version="1.1" viewBox="0 0 1024 1024" width="1024.0pt" height="1024.0pt">
<path d="M 0.00 0.00 L 1024.00 0.00 L 1024.00 1024.00 L 0.00 1024.00 L 0.00 0.00 Z" fill="#ffffff" />
<path d="M 505.51 48.89 C 526.45 47.31 547.27 47.65 568.00 51.20 C 577.02 52.89 586.34 55.10 594.42 59.58 C 599.94 62.63 604.71 67.21 606.85 73.26 C 608.38 77.33 607.96 81.74 608.01 86.00 C 608.00 106.32 607.99 126.65 608.01 146.96 C 640.62 149.99 672.42 153.71 704.26 161.81 C 718.79 165.57 734.01 170.40 747.03 177.97 C 755.52 183.05 763.36 189.77 766.61 199.43 C 768.64 204.99 767.88 210.18 768.00 216.00 C 768.02 392.01 767.96 568.06 768.03 744.07 C 786.78 749.23 806.87 755.28 823.66 765.34 C 833.31 771.19 842.88 779.44 846.48 790.50 C 848.58 796.41 847.91 801.88 848.00 808.00 C 848.01 836.34 847.98 864.67 848.02 893.01 C 848.15 898.08 847.70 903.04 845.65 907.73 C 841.27 918.51 830.99 926.58 821.12 932.13 C 804.28 941.57 784.78 947.50 766.16 952.33 C 734.59 960.26 701.95 965.16 669.63 968.77 C 604.72 975.71 539.21 977.33 474.00 975.01 C 423.04 973.00 371.19 968.63 321.02 959.20 C 296.80 954.45 271.82 948.61 249.00 939.05 C 241.08 935.72 233.32 931.68 226.33 926.66 C 218.89 921.12 212.50 914.47 209.52 905.48 C 207.58 899.95 208.03 894.74 208.00 889.00 C 208.00 859.33 208.01 829.65 207.99 799.98 C 207.88 792.59 210.99 785.25 215.51 779.52 C 222.45 770.96 231.69 765.22 241.45 760.39 C 256.42 753.06 272.00 748.50 287.98 744.05 C 288.02 680.37 287.99 616.68 288.00 553.00 C 288.04 549.34 287.83 545.64 288.14 542.00 C 288.73 535.78 293.51 530.32 299.47 528.60 C 306.36 526.63 313.80 529.38 317.58 535.48 C 320.61 540.10 319.95 544.76 320.01 550.00 C 319.98 611.67 320.01 673.34 320.00 735.00 C 320.03 740.26 319.89 745.51 320.12 750.76 C 326.24 755.80 333.20 758.63 340.56 761.35 C 357.94 767.54 376.65 771.33 394.82 774.40 C 412.08 777.03 429.54 779.51 446.96 780.48 C 446.12 771.02 444.56 761.66 442.78 752.34 C 435.96 718.39 424.39 684.84 411.10 652.91 C 392.42 608.45 369.70 565.61 344.45 524.55 C 321.60 487.52 296.54 451.70 268.93 418.06 C 245.34 389.53 219.53 361.55 190.30 338.70 C 185.85 335.02 179.66 332.04 177.37 326.59 C 174.23 319.61 176.54 311.16 182.85 306.82 C 187.16 303.73 191.90 304.03 196.95 303.38 C 215.57 301.18 234.77 297.76 252.48 291.47 C 262.53 287.83 272.78 282.92 280.95 275.93 C 287.88 270.04 292.88 262.12 294.25 253.04 C 296.12 240.26 292.33 229.00 289.21 216.85 C 287.43 210.61 287.42 203.97 289.95 197.92 C 293.07 190.10 299.02 184.50 305.90 179.91 C 315.12 173.88 325.78 169.65 336.23 166.27 C 371.83 155.03 410.93 150.41 447.99 146.97 C 448.02 124.63 448.00 102.29 447.99 79.95 C 447.84 74.21 450.66 68.66 454.66 64.66 C 458.79 60.60 464.42 57.84 469.80 55.86 C 481.41 51.76 493.34 50.15 505.51 48.89 Z" fill="#000000" />
<path d="M 561.17 82.53 C 566.19 83.37 571.14 84.48 575.93 86.22 C 575.94 87.41 575.94 88.60 575.93 89.79 C 560.53 95.01 543.10 95.82 526.96 96.06 C 518.67 96.33 511.83 103.76 511.98 112.00 C 511.83 120.26 518.67 127.65 526.96 127.95 C 543.37 128.16 559.87 126.72 575.92 123.20 C 576.03 138.74 576.10 154.31 575.89 169.84 C 566.76 173.01 557.39 174.17 547.83 175.19 C 530.23 176.58 512.28 176.32 494.83 173.47 C 489.83 172.64 484.90 171.50 480.11 169.82 C 479.92 141.95 479.94 114.05 480.10 86.18 C 489.28 82.93 499.38 81.71 509.04 80.74 C 526.37 79.42 544.00 79.73 561.17 82.53 Z" fill="#ffffff" />
<path d="M 448.11 179.33 C 449.25 183.15 450.54 186.73 453.23 189.75 C 457.87 195.13 464.03 198.03 470.58 200.41 C 482.20 204.39 493.86 205.91 506.00 207.14 C 520.64 208.32 535.36 208.27 550.01 207.14 C 562.52 205.88 574.93 204.23 586.82 199.91 C 592.84 197.61 599.17 194.36 603.24 189.22 C 605.66 186.24 606.83 182.87 608.04 179.28 C 626.41 180.66 644.74 182.95 662.93 185.89 C 681.22 189.05 700.11 192.92 717.53 199.43 C 723.20 201.69 729.41 204.15 734.19 208.01 C 726.21 214.01 715.82 217.34 706.38 220.34 C 682.27 227.52 656.96 231.46 632.02 234.41 C 612.40 236.71 592.72 238.04 573.00 239.04 C 524.81 241.06 476.25 240.02 428.27 234.91 C 401.69 231.86 374.50 227.86 348.85 220.10 C 339.86 217.25 330.25 213.98 322.43 208.61 L 322.46 207.40 C 327.66 203.69 333.88 201.15 339.83 198.91 C 353.69 193.88 368.44 190.49 382.90 187.71 C 404.45 183.75 426.26 180.87 448.11 179.33 Z" fill="#ffffff" />
<path d="M 735.96 243.85 C 736.05 409.52 735.96 575.32 736.01 741.00 C 736.04 744.26 736.01 747.52 735.89 750.78 C 726.40 758.40 713.21 762.30 701.68 765.72 C 684.45 770.51 666.50 773.73 648.81 776.28 C 596.68 783.44 543.55 785.09 490.99 783.37 C 487.11 783.34 483.26 783.20 479.40 782.68 C 478.63 771.12 478.07 759.53 477.39 747.96 C 473.01 680.51 465.73 612.95 453.46 546.46 C 437.60 460.50 413.34 375.41 373.93 297.11 C 370.91 290.75 364.11 287.12 357.14 288.15 C 349.76 289.15 343.87 295.52 343.51 302.96 C 343.05 308.58 346.04 312.83 348.33 317.66 C 383.37 389.11 405.44 465.86 420.39 543.82 C 425.25 569.76 429.69 595.86 432.87 622.06 C 430.92 618.53 429.41 614.89 427.69 611.24 C 399.08 549.91 364.04 491.51 324.11 436.89 C 298.95 402.76 271.49 369.50 240.87 340.13 C 237.64 336.86 233.68 334.13 230.93 330.45 C 239.13 328.74 247.27 326.83 255.27 324.32 C 275.71 317.95 296.40 308.09 310.50 291.50 C 321.28 279.01 326.67 263.11 326.86 246.69 C 331.60 248.03 336.18 249.82 340.91 251.19 C 362.93 257.74 385.76 261.68 408.49 264.78 C 451.32 270.31 494.84 272.32 538.00 271.98 C 584.18 271.41 631.03 268.41 676.53 260.23 C 696.82 256.50 716.81 251.62 735.96 243.85 Z" fill="#ffffff" />
<path d="M 298.05 774.58 C 302.33 776.92 305.78 780.56 310.21 782.79 C 326.84 791.96 346.39 797.18 364.83 801.31 C 390.00 806.71 415.69 810.08 441.31 812.33 C 471.44 815.02 501.76 816.09 532.00 816.00 C 565.21 815.87 598.27 814.25 631.29 810.73 C 659.14 807.57 687.55 803.27 714.49 795.37 C 727.53 791.41 741.33 786.50 752.42 778.42 C 754.85 776.96 756.64 773.76 759.79 775.08 C 772.99 778.60 786.32 782.58 798.73 788.34 C 804.82 791.28 811.50 794.73 815.88 800.00 C 809.56 807.35 799.07 811.64 790.28 815.27 C 763.53 825.50 734.48 831.11 706.28 835.65 C 664.99 842.03 623.72 845.31 582.00 846.99 C 535.63 848.75 489.34 848.23 443.02 845.45 C 397.41 842.46 351.10 837.57 306.48 827.41 C 290.56 823.63 274.39 819.22 259.38 812.62 C 252.65 809.51 244.94 805.78 240.12 800.00 C 244.55 794.68 251.12 791.31 257.27 788.36 C 270.18 782.32 284.30 778.25 298.05 774.58 Z" fill="#ffffff" />
<path d="M 240.26 839.41 C 242.67 839.68 245.24 841.58 247.58 842.42 C 270.76 852.38 296.27 858.33 320.96 863.18 C 374.08 873.18 429.07 877.51 483.04 879.34 C 526.38 880.59 569.73 880.10 613.01 877.51 C 654.07 874.97 695.37 870.70 735.81 863.04 C 762.81 857.72 791.09 850.97 815.97 838.99 C 816.07 856.34 815.94 873.69 816.03 891.04 C 816.02 892.60 816.05 894.21 815.82 895.76 C 814.42 898.17 811.83 900.02 809.59 901.60 C 803.04 906.04 795.51 909.26 788.14 912.09 C 770.37 918.74 751.53 923.23 732.94 926.97 C 704.92 932.44 676.70 936.07 648.28 938.73 C 593.96 943.66 539.51 944.95 485.01 943.37 C 444.63 942.08 404.37 939.24 364.32 933.80 C 337.59 930.03 310.40 925.27 284.49 917.64 C 272.82 914.12 260.68 909.97 250.07 903.92 C 246.60 901.76 242.37 899.29 240.18 895.77 C 239.82 892.88 240.02 889.90 239.99 887.00 C 240.01 871.92 240.01 856.83 239.98 841.76 C 239.95 840.94 240.04 840.16 240.26 839.41 Z" fill="#ffffff" />
</svg>