<?xml version="1.0" encoding="UTF-8" standalone="no"?>
<!DOCTYPE svg PUBLIC "-//W3C//DTD SVG 1.1//EN" "http://www.w3.org/Graphics/SVG/1.1/DTD/svg11.dtd">
<svg xmlns="http://www.w3.org/2000/svg" version="1.1" viewBox="0 0 1024 1024" width="1024.0pt" height="1024.0pt">
<path d="M 0.00 0.00 L 1024.00 0.00 L 1024.00 1024.00 L 0.00 1024.00 L 0.00 0.00 Z" fill="#ffffff" />
<path d="M 328.00 48.00 C 453.34 48.00 578.67 48.00 704.01 48.00 C 715.42 47.89 726.26 54.25 731.85 64.16 C 734.58 68.97 736.01 74.42 736.00 79.96 C 736.00 111.98 736.00 144.00 736.00 176.03 C 736.06 185.87 731.37 195.54 723.43 201.40 C 721.22 203.24 718.69 203.88 718.20 207.06 C 712.97 229.73 694.58 248.36 672.03 253.98 C 661.86 256.78 652.38 255.84 642.00 256.00 C 624.80 256.06 607.59 255.89 590.39 256.08 C 588.34 265.77 584.76 275.02 579.27 283.29 C 578.22 284.91 577.01 286.49 576.18 288.24 C 575.78 291.45 576.05 294.77 576.00 298.00 C 576.01 501.33 575.99 704.66 576.01 908.00 C 576.13 914.77 575.77 921.47 573.98 928.03 C 569.50 945.89 556.89 961.28 540.40 969.40 C 526.27 976.43 509.57 977.92 494.41 973.57 C 480.05 969.55 467.41 960.27 459.02 947.98 C 451.85 937.45 447.94 924.74 448.00 912.00 C 448.00 759.67 448.01 607.33 447.99 455.00 C 448.10 450.28 447.36 445.02 449.69 440.75 C 452.72 434.75 459.27 431.23 465.97 432.10 C 473.83 432.93 480.14 440.01 479.99 447.94 C 480.02 602.63 479.99 757.33 480.01 912.03 C 480.00 920.43 483.45 928.68 489.41 934.59 C 496.03 941.27 505.66 944.80 515.03 943.85 C 525.53 942.86 535.20 936.45 540.16 927.13 C 542.86 922.16 544.09 916.66 544.01 911.01 C 543.95 711.88 544.07 512.67 543.95 313.54 C 538.36 315.64 532.75 317.57 526.85 318.64 C 511.05 321.69 494.88 319.60 480.04 313.54 C 479.93 337.04 480.05 360.55 479.99 384.05 C 480.05 389.53 477.16 394.66 472.55 397.57 C 467.50 400.84 460.50 400.84 455.45 397.57 C 450.84 394.66 447.95 389.54 448.01 384.06 C 447.98 352.80 448.02 321.23 447.99 289.98 C 448.12 287.70 446.63 286.32 445.53 284.48 C 439.63 275.94 435.73 266.23 433.61 256.08 C 416.08 255.89 398.54 256.06 381.00 256.00 C 371.24 255.86 362.34 256.69 352.76 254.18 C 330.77 248.98 312.38 231.37 306.48 209.53 C 305.65 207.19 305.85 204.87 303.51 203.51 C 297.33 199.54 292.40 194.05 289.95 187.05 C 287.90 181.82 287.91 176.53 287.99 171.00 C 288.03 140.34 287.95 109.61 288.03 78.96 C 288.26 66.11 296.87 54.23 308.97 49.94 C 315.33 47.47 321.35 48.04 328.00 48.00 Z" fill="#000000" />
<path d="M 320.01 80.01 C 448.00 79.99 576.00 79.99 703.99 80.01 C 704.01 90.67 704.01 101.33 703.99 111.99 C 591.98 112.02 479.95 111.98 367.94 112.01 C 361.43 111.91 355.51 116.04 353.10 122.04 C 350.25 129.17 352.93 137.52 359.45 141.57 C 364.34 144.79 369.46 143.88 375.00 144.01 C 484.66 144.00 594.33 143.99 703.99 144.01 C 704.01 154.67 704.01 165.33 703.99 175.99 C 576.00 176.01 448.00 176.01 320.01 175.99 C 319.99 144.00 319.99 112.00 320.01 80.01 Z" fill="#ffffff" />
<path d="M 340.41 208.11 C 344.95 207.93 349.45 208.01 354.00 208.00 C 459.33 208.00 564.67 208.00 670.00 208.00 C 674.55 208.01 679.05 207.92 683.59 208.12 C 679.54 214.98 673.14 220.14 665.53 222.51 C 659.71 224.47 654.04 223.94 648.00 224.00 C 554.66 223.99 461.32 224.01 367.97 223.99 C 356.72 224.02 346.07 217.82 340.41 208.11 Z" fill="#ffffff" />
<path d="M 466.82 256.09 C 496.93 255.94 527.07 255.94 557.18 256.09 C 551.76 271.33 538.52 283.18 522.73 286.76 C 511.86 289.33 500.18 287.85 490.27 282.73 C 479.41 277.26 470.93 267.52 466.82 256.09 Z" fill="#ffffff" />
</svg>