<?xml version="1.0" encoding="UTF-8" standalone="no"?>
<!DOCTYPE svg PUBLIC "-//W3C//DTD SVG 1.1//EN" "http://www.w3.org/Graphics/SVG/1.1/DTD/svg11.dtd">
<svg xmlns="http://www.w3.org/2000/svg" version="1.1" viewBox="0 0 1024 1024" width="1024.0pt" height="1024.0pt">
<path d="M 0.00 0.00 L 1024.00 0.00 L 1024.00 1024.00 L 0.00 1024.00 L 0.00 0.00 Z" fill="#ffffff" />
<path d="M 111.95 47.99 C 335.98 48.02 560.02 47.98 784.06 48.01 C 787.76 48.03 790.76 49.09 793.74 51.26 C 836.48 83.29 879.62 115.74 922.35 147.67 C 926.03 150.68 928.17 155.16 928.01 159.95 C 927.97 426.65 928.03 693.36 927.99 960.06 C 928.14 967.44 922.61 974.22 915.39 975.64 C 911.68 976.28 907.75 975.94 904.00 976.00 C 685.33 976.00 466.67 976.00 248.00 976.00 C 244.39 975.96 240.72 976.19 237.13 975.83 C 232.28 975.28 228.38 971.20 224.54 968.46 C 185.51 939.16 146.46 909.87 107.40 880.60 C 105.31 879.04 103.09 877.59 101.11 875.87 C 97.75 872.88 95.83 868.57 95.99 864.05 C 96.02 599.70 96.00 335.35 96.00 71.00 C 96.16 66.32 95.24 60.81 97.62 56.66 C 100.30 51.35 105.95 47.75 111.95 47.99 Z" fill="#000000" />
<path d="M 160.50 80.09 C 183.34 79.86 206.19 80.10 229.02 79.97 C 230.89 79.99 232.85 79.88 234.70 80.24 C 237.38 81.79 239.75 83.91 242.26 85.73 C 266.65 104.02 291.03 122.33 315.43 140.59 C 316.82 141.66 318.17 142.77 319.50 143.91 C 296.66 144.14 273.81 143.90 250.98 144.03 C 249.11 144.01 247.15 144.12 245.30 143.76 C 242.62 142.21 240.25 140.09 237.74 138.27 C 213.35 119.98 188.97 101.67 164.57 83.41 C 163.18 82.34 161.83 81.23 160.50 80.09 Z" fill="#ffffff" />
<path d="M 288.50 80.09 C 322.34 79.86 356.21 80.10 390.04 79.97 C 391.58 79.99 393.19 79.93 394.70 80.24 C 397.38 81.79 399.75 83.91 402.26 85.73 C 426.65 104.02 451.03 122.33 475.43 140.59 C 476.82 141.66 478.17 142.77 479.50 143.91 C 445.66 144.14 411.79 143.90 377.96 144.03 C 376.42 144.01 374.81 144.07 373.30 143.76 C 370.62 142.21 368.25 140.09 365.74 138.27 C 341.35 119.98 316.97 101.67 292.57 83.41 C 291.18 82.34 289.83 81.23 288.50 80.09 Z" fill="#ffffff" />
<path d="M 448.50 80.09 C 453.01 79.93 457.49 80.01 462.00 80.00 C 564.33 80.00 666.67 80.01 769.00 79.99 C 772.20 80.06 775.53 79.74 778.70 80.24 C 781.38 81.79 783.75 83.91 786.26 85.73 C 810.65 104.02 835.03 122.33 859.43 140.59 C 860.82 141.66 862.17 142.77 863.50 143.91 C 858.99 144.07 854.51 143.99 850.00 144.00 C 747.67 144.00 645.34 143.99 543.00 144.01 C 539.80 143.94 536.47 144.26 533.30 143.76 C 530.62 142.21 528.25 140.09 525.74 138.27 C 501.35 119.98 476.97 101.67 452.57 83.41 C 451.18 82.34 449.83 81.23 448.50 80.09 Z" fill="#ffffff" />
<path d="M 128.05 96.18 C 129.20 96.93 130.31 97.74 131.40 98.57 C 162.21 121.79 193.23 144.81 223.97 168.11 C 224.05 229.39 223.97 290.77 224.01 352.06 C 223.95 357.54 226.84 362.66 231.45 365.57 C 236.96 369.12 244.57 368.79 249.74 364.75 C 253.69 361.71 256.03 357.07 255.99 352.06 C 256.03 293.41 255.96 234.66 256.02 176.02 C 469.32 175.98 682.68 175.98 895.98 176.02 C 896.02 431.85 896.02 688.15 895.98 943.98 C 682.67 944.02 469.33 944.02 256.02 943.98 C 255.97 770.63 256.01 596.42 256.01 423.00 C 255.90 418.25 256.64 413.02 254.29 408.72 C 251.26 402.75 244.74 399.25 238.08 400.09 C 230.18 400.91 223.86 407.99 224.01 415.94 C 223.96 586.50 224.06 757.36 223.96 927.88 C 197.26 907.99 170.68 887.92 144.02 867.98 C 138.72 863.91 133.25 860.07 128.03 855.89 C 127.95 604.98 128.03 353.91 127.99 102.99 C 127.99 100.72 127.96 98.45 128.05 96.18 Z" fill="#ffffff" />
<path d="M 719.94 208.01 C 760.22 207.98 800.70 208.02 841.00 207.99 C 845.73 208.10 851.02 207.36 855.29 209.70 C 861.25 212.73 864.78 219.33 863.90 225.98 C 863.04 233.84 856.01 240.15 848.06 239.99 C 805.38 240.01 762.62 240.01 719.94 239.99 C 711.24 240.16 703.84 232.67 703.98 224.00 C 703.84 215.33 711.24 207.84 719.94 208.01 Z" fill="#000000" />
<path d="M 326.57 224.89 C 343.60 221.44 361.76 227.77 372.84 241.15 C 380.23 250.04 384.32 261.45 384.00 273.03 C 383.83 285.79 378.22 298.21 368.98 306.97 C 361.09 314.32 350.82 319.02 340.03 319.84 C 324.18 321.30 308.02 314.30 298.26 301.73 C 291.42 293.01 287.70 282.07 288.00 270.97 C 288.18 257.98 293.99 245.33 303.53 236.55 C 310.01 230.71 318.01 226.59 326.57 224.89 Z" fill="#000000" />
<path d="M 333.30 256.23 C 342.49 254.51 351.51 261.80 351.97 271.07 C 352.60 279.66 345.49 287.56 336.92 287.97 C 328.33 288.59 320.45 281.50 320.03 272.93 C 319.46 264.98 325.49 257.55 333.30 256.23 Z" fill="#ffffff" />
<path d="M 420.83 320.17 C 435.98 321.25 450.58 327.92 461.26 338.74 C 472.76 350.06 479.53 365.84 479.98 381.95 C 480.40 394.41 477.10 406.95 470.55 417.56 C 464.89 426.91 456.84 434.11 447.65 439.89 C 460.97 452.11 471.12 467.45 476.14 484.88 C 481.15 501.94 481.31 520.37 476.60 537.52 C 471.37 556.66 459.98 574.09 444.54 586.54 C 419.97 606.78 385.67 613.24 355.34 603.68 C 339.02 598.60 324.11 589.02 312.68 576.33 C 301.63 564.05 293.77 549.00 290.26 532.84 C 286.56 516.26 287.39 498.68 292.58 482.51 C 298.30 464.72 309.38 448.64 324.01 437.01 C 335.08 428.05 348.03 421.96 361.80 418.45 C 359.79 414.57 357.69 410.96 356.17 406.83 C 350.90 393.03 350.60 377.48 355.34 363.49 C 360.64 347.54 372.54 334.02 387.60 326.60 C 397.84 321.52 409.43 319.31 420.83 320.17 Z" fill="#000000" />
<path d="M 409.46 352.68 C 418.25 350.79 427.60 352.89 434.83 358.18 C 445.99 366.23 450.91 381.23 446.27 394.27 C 441.60 408.42 426.82 417.75 412.02 415.75 C 397.02 413.94 384.93 401.14 384.07 386.04 C 382.92 370.38 394.13 355.83 409.46 352.68 Z" fill="#ffffff" />
<path d="M 527.94 400.01 C 549.29 400.00 570.71 399.98 592.06 400.01 C 598.09 399.96 603.57 403.39 606.30 408.74 C 608.66 413.13 607.58 418.26 608.84 423.31 C 611.55 435.03 620.98 444.45 632.69 447.16 C 643.31 449.70 654.96 446.42 662.61 438.61 C 668.67 432.66 671.94 424.43 672.02 415.97 C 671.99 409.89 675.34 404.48 680.71 401.71 C 684.01 399.96 687.36 399.97 690.99 399.97 C 711.66 400.07 732.39 399.90 753.05 400.06 C 758.96 400.25 762.41 403.80 766.66 407.32 C 797.12 432.77 827.86 458.28 858.29 483.72 C 864.64 488.94 865.89 498.42 861.16 505.14 C 845.34 527.62 829.41 550.10 813.58 572.58 C 810.49 577.15 805.62 580.13 800.00 579.92 C 795.53 580.14 791.92 578.15 788.53 575.47 C 781.72 570.33 774.92 565.17 768.04 560.12 C 767.93 629.40 768.05 698.77 767.99 768.06 C 768.14 775.44 762.61 782.22 755.39 783.64 C 752.01 784.24 748.42 783.96 744.99 784.01 C 672.68 783.99 600.35 784.02 528.03 783.99 C 521.95 784.04 516.47 780.65 513.70 775.27 C 511.49 771.13 512.06 766.52 511.99 762.00 C 512.01 694.23 512.00 626.46 511.99 558.69 C 506.56 559.04 501.50 558.54 497.40 554.61 C 490.64 548.56 490.54 537.37 497.22 531.23 C 502.12 527.09 507.49 523.50 512.54 519.54 C 517.20 516.18 520.88 512.27 527.00 512.01 C 536.07 511.31 544.16 518.85 543.99 527.97 C 544.03 602.60 543.96 677.36 544.02 751.98 C 608.00 752.02 672.00 752.02 735.98 751.98 C 736.04 677.33 735.97 602.60 736.01 527.94 C 735.86 519.64 742.72 512.38 751.00 512.01 C 756.12 511.59 760.20 513.84 764.04 516.95 C 774.74 525.03 785.45 533.09 796.21 541.08 C 797.62 539.50 798.94 537.86 800.12 536.10 C 808.69 523.62 817.73 511.45 826.18 498.89 C 823.75 496.61 821.20 494.48 818.60 492.38 C 795.18 472.83 771.67 453.34 748.29 433.74 C 746.94 432.64 745.89 431.85 744.04 432.00 C 730.08 432.03 716.11 431.93 702.15 432.05 C 698.62 444.23 692.30 455.31 682.73 463.73 C 671.37 473.95 656.30 479.84 641.02 480.00 C 626.49 480.30 611.96 475.44 600.54 466.46 C 589.29 457.81 581.73 445.62 577.85 432.05 C 563.89 431.93 549.92 432.03 535.96 432.00 C 533.86 431.80 532.68 432.98 531.16 434.18 C 523.05 441.07 514.82 447.83 506.67 454.68 C 503.99 456.89 501.66 459.08 498.31 460.24 C 492.00 462.73 484.22 460.11 480.27 454.72 C 475.27 448.18 476.32 438.01 482.83 432.82 C 494.22 423.23 505.71 413.71 517.15 404.15 C 520.28 401.51 523.79 399.97 527.94 400.01 Z" fill="#000000" />
<path d="M 373.47 448.86 C 394.10 445.31 415.84 452.60 430.22 467.78 C 440.60 478.57 446.98 493.03 447.88 507.98 C 448.98 524.42 443.36 541.13 432.59 553.58 C 424.14 563.50 412.63 570.73 400.00 573.96 C 375.97 580.41 349.42 571.44 334.05 551.95 C 324.39 539.98 319.28 524.37 320.07 509.00 C 320.71 494.66 326.36 480.64 335.87 469.88 C 345.51 458.77 358.98 451.31 373.47 448.86 Z" fill="#ffffff" />
<path d="M 385.02 464.03 C 392.58 464.33 399.09 470.53 399.90 478.02 C 400.78 484.67 397.25 491.27 391.29 494.30 C 386.74 496.76 381.99 495.27 377.46 497.42 C 373.27 499.36 369.85 503.19 368.63 507.67 C 367.64 511.71 368.36 515.45 366.30 519.28 C 363.27 525.25 356.74 528.75 350.08 527.91 C 342.57 527.13 336.35 520.59 336.03 513.03 C 335.67 502.67 338.96 492.40 344.98 483.99 C 353.91 471.28 369.49 463.49 385.02 464.03 Z" fill="#000000" />
<path d="M 311.00 815.99 C 330.00 816.02 349.05 815.98 368.05 816.01 C 373.56 815.96 378.65 818.81 381.57 823.46 C 385.12 828.96 384.79 836.56 380.75 841.73 C 377.72 845.71 373.08 848.02 368.06 847.99 C 346.71 848.01 325.29 848.01 303.94 847.99 C 297.41 848.09 291.49 843.94 289.08 837.92 C 286.26 830.80 288.95 822.47 295.45 818.43 C 300.34 815.21 305.46 816.11 311.00 815.99 Z" fill="#000000" />
<path d="M 303.94 880.01 C 344.29 879.98 384.65 880.02 425.00 879.99 C 429.72 880.10 435.02 879.36 439.29 881.70 C 445.25 884.73 448.78 891.33 447.90 897.98 C 447.04 905.84 440.01 912.15 432.06 911.99 C 389.35 912.01 346.65 912.01 303.94 911.99 C 295.24 912.16 287.84 904.67 287.98 896.00 C 287.84 887.33 295.24 879.84 303.94 880.01 Z" fill="#000000" />
<path d="M 727.00 879.99 C 767.35 880.02 807.71 879.98 848.06 880.01 C 853.32 879.97 858.18 882.54 861.17 886.85 C 864.97 892.19 864.97 899.80 861.18 905.14 C 858.19 909.45 853.33 912.03 848.06 911.99 C 805.37 912.01 762.64 912.00 719.95 911.99 C 713.41 912.09 707.49 907.95 705.08 901.92 C 702.26 894.80 704.95 886.47 711.45 882.43 C 716.34 879.21 721.46 880.11 727.00 879.99 Z" fill="#000000" />
</svg>