<?xml version="1.0" encoding="UTF-8" standalone="no"?>
<!DOCTYPE svg PUBLIC "-//W3C//DTD SVG 1.1//EN" "http://www.w3.org/Graphics/SVG/1.1/DTD/svg11.dtd">
<svg xmlns="http://www.w3.org/2000/svg" version="1.1" viewBox="0 0 128 128" width="128.0pt" height="128.0pt">
<path d="M 0.00 0.00 L 128.00 0.00 L 128.00 128.00 L 0.00 128.00 L 0.00 0.00 Z" fill="#ffffff" />
<path d="M 40.02 6.09 C 46.66 5.91 53.38 5.95 60.02 6.06 C 62.23 5.98 62.79 8.86 60.90 9.83 C 54.64 10.26 48.29 9.87 42.00 10.00 C 42.00 13.33 42.00 16.67 42.00 20.00 C 48.29 20.13 54.64 19.74 60.91 20.17 C 62.79 21.14 62.23 24.02 60.02 23.94 C 54.02 24.14 48.00 23.93 42.00 24.00 C 42.00 34.00 41.99 44.00 42.02 54.01 C 42.08 57.94 41.28 61.74 39.04 65.03 C 31.63 75.93 24.18 86.84 16.74 97.73 C 15.16 100.15 13.10 102.55 12.07 105.26 C 11.84 107.15 12.59 109.21 12.97 111.06 C 18.63 108.49 24.64 107.23 30.83 108.35 C 32.73 108.96 32.74 110.31 31.99 111.97 C 29.00 112.35 25.98 111.80 22.97 112.21 C 20.29 112.53 17.94 113.48 15.43 114.42 C 18.15 116.24 20.56 117.97 23.99 118.01 C 27.95 118.07 30.80 115.19 34.85 115.32 C 34.59 116.47 34.28 117.60 33.92 118.72 C 31.54 120.73 28.17 121.71 25.11 121.98 C 16.62 122.60 8.49 115.61 8.01 107.08 C 7.73 104.46 8.69 102.22 10.13 100.10 C 18.44 88.08 26.60 75.94 34.89 63.90 C 36.75 61.25 38.00 58.33 37.98 55.04 C 38.06 39.69 37.94 24.31 38.02 8.96 C 37.98 7.51 38.32 6.13 40.02 6.09 Z" fill="#000000" />
<path d="M 68.02 6.09 C 76.34 5.85 84.68 6.10 93.01 5.97 C 94.64 6.18 96.82 5.51 97.80 7.18 C 98.18 10.08 97.97 13.08 98.01 16.00 C 98.00 30.23 97.98 44.46 98.02 58.68 C 103.26 64.08 105.36 71.98 103.20 79.22 C 101.29 84.75 96.91 88.35 91.72 90.71 C 87.89 92.23 85.80 95.17 82.93 97.93 C 76.42 104.43 69.95 110.97 63.43 117.45 C 57.45 123.36 47.42 123.54 41.30 117.72 C 36.74 113.75 33.97 105.99 37.77 100.66 C 41.97 94.56 46.11 88.43 50.30 82.33 C 51.27 80.63 52.78 80.65 54.47 80.04 C 54.61 81.46 54.47 82.75 54.07 83.92 C 49.87 90.66 44.97 96.99 40.75 103.72 C 39.22 105.98 40.54 108.65 40.97 111.06 C 49.03 107.34 56.76 106.96 65.14 109.98 C 71.83 103.31 78.51 96.63 85.18 89.93 C 81.88 83.27 80.66 74.47 83.63 67.51 C 85.65 62.87 89.42 60.17 93.99 58.31 C 94.01 42.20 94.00 26.10 94.00 10.00 C 86.00 10.00 78.00 10.00 70.00 10.00 C 70.00 13.33 70.00 16.67 70.00 20.00 C 76.29 20.13 82.64 19.74 88.90 20.16 C 90.79 21.14 90.23 24.02 88.02 23.94 C 82.02 24.14 76.00 23.93 70.00 24.00 C 70.00 34.00 69.99 44.00 70.02 54.00 C 70.05 57.68 69.42 61.26 67.43 64.40 C 64.66 68.73 61.61 72.87 58.80 77.17 C 57.72 77.37 56.65 77.57 55.57 77.76 C 55.50 76.47 55.64 75.26 56.00 74.14 C 58.60 69.52 62.32 65.47 64.73 60.73 C 66.37 57.33 65.96 53.68 66.02 50.00 C 66.00 36.33 65.97 22.63 66.02 8.96 C 65.98 7.51 66.32 6.13 68.02 6.09 Z" fill="#000000" />
<path d="M 95.68 62.02 C 99.31 66.63 101.24 72.49 99.22 78.23 C 97.32 83.04 93.05 85.57 88.64 87.74 C 85.89 81.89 84.62 73.90 87.97 68.07 C 89.68 64.91 92.51 63.40 95.68 62.02 Z" fill="#ffffff" />
<path d="M 62.13 113.20 C 59.49 115.66 56.74 117.68 53.01 117.96 C 49.16 118.33 46.45 116.46 43.43 114.42 C 49.96 111.64 55.25 111.27 62.13 113.20 Z" fill="#ffffff" />
</svg>