<?xml version="1.0" encoding="UTF-8" standalone="no"?>
<!DOCTYPE svg PUBLIC "-//W3C//DTD SVG 1.1//EN" "http://www.w3.org/Graphics/SVG/1.1/DTD/svg11.dtd">
<svg xmlns="http://www.w3.org/2000/svg" version="1.1" viewBox="0 0 1024 1024" width="1024.0pt" height="1024.0pt">
<path d="M 0.00 0.00 L 1024.00 0.00 L 1024.00 1024.00 L 0.00 1024.00 L 0.00 0.00 Z" fill="#ffffff" />
<path d="M 191.96 208.00 C 378.98 208.01 565.99 207.99 753.00 208.00 C 770.64 208.06 788.04 213.80 802.97 223.02 C 826.71 237.72 844.86 260.59 858.19 284.81 C 877.34 319.78 888.35 359.86 893.09 399.30 C 895.45 419.07 896.51 439.10 895.71 459.00 C 895.48 482.40 896.59 505.72 898.58 529.03 C 903.68 584.20 914.52 640.81 935.79 692.17 C 945.41 715.42 957.59 738.13 972.73 758.27 C 976.44 763.09 977.07 769.87 974.30 775.28 C 972.60 778.53 969.39 781.23 966.83 783.84 C 957.68 793.01 948.43 802.11 939.39 811.40 C 934.79 816.17 927.34 817.39 921.36 814.67 C 906.57 807.08 891.61 799.79 876.79 792.27 C 874.96 791.33 873.06 790.54 871.14 789.80 C 867.67 795.92 864.96 802.44 861.60 808.61 C 857.52 815.43 848.52 817.95 841.36 814.67 C 826.78 807.21 812.07 799.98 797.45 792.60 C 795.40 791.54 793.30 790.62 791.15 789.80 C 787.80 795.72 785.07 801.94 781.98 807.99 C 778.07 815.24 768.78 818.07 761.36 814.67 C 749.03 808.30 736.51 802.25 724.15 795.94 C 719.82 793.88 715.62 791.46 711.15 789.81 C 707.58 795.88 704.98 802.45 701.60 808.61 C 697.38 815.68 687.92 818.09 680.68 814.35 C 672.13 809.83 663.41 805.64 654.77 801.30 C 646.90 797.51 639.23 793.14 631.15 789.81 C 627.58 795.88 624.96 802.44 621.61 808.61 C 617.38 815.67 607.92 818.09 600.68 814.35 C 588.78 808.22 576.76 802.32 564.82 796.27 C 560.30 794.07 555.84 791.54 551.15 789.81 C 547.58 795.89 544.98 802.45 541.60 808.61 C 537.64 815.21 529.13 817.78 522.05 814.97 C 503.75 805.88 485.58 796.41 467.11 787.68 C 458.84 795.54 451.01 803.88 442.79 811.80 C 438.56 815.79 432.39 816.98 426.90 815.20 C 422.18 813.72 418.57 809.23 415.25 805.75 C 389.07 777.78 369.69 744.32 354.69 709.24 C 338.02 670.10 326.54 628.20 318.54 586.47 C 317.59 581.79 317.03 577.09 315.83 572.47 C 313.67 576.88 312.14 581.60 310.20 586.13 C 301.90 606.14 291.07 625.54 277.31 642.32 C 273.43 647.08 269.15 651.45 264.97 655.93 C 272.99 656.15 281.02 655.85 289.05 656.05 C 294.68 656.25 299.74 659.77 302.30 664.72 C 305.19 670.32 304.40 677.49 300.29 682.29 C 297.22 685.95 292.85 688.02 288.05 687.99 C 256.03 688.02 224.00 687.99 191.98 688.00 C 183.10 688.04 174.26 686.67 165.75 684.15 C 145.89 678.27 128.88 666.16 114.66 651.34 C 93.33 628.81 78.28 600.13 67.97 571.05 C 55.55 535.88 49.37 498.22 48.20 461.00 C 47.24 430.49 49.60 399.77 55.65 369.84 C 56.85 363.37 61.65 358.41 68.06 356.98 C 75.80 355.19 84.07 359.94 86.57 367.44 C 88.54 372.89 86.33 379.00 85.46 384.55 C 78.99 421.27 78.35 459.06 83.07 496.03 C 87.33 527.79 95.59 559.32 109.89 588.11 C 117.26 602.85 126.45 617.17 137.85 629.15 C 148.45 640.35 161.88 650.09 176.97 654.02 C 189.65 657.47 203.18 656.30 215.27 651.27 C 230.97 644.77 244.07 632.69 254.50 619.50 C 268.01 602.31 278.06 581.96 285.43 561.44 C 300.73 518.50 305.95 471.38 303.38 426.00 C 301.39 392.53 294.93 358.57 282.72 327.29 C 275.11 307.93 265.13 289.24 251.82 273.17 C 244.10 264.05 235.52 255.94 225.22 249.77 C 213.83 242.87 200.70 239.06 187.32 240.19 C 172.87 241.38 159.96 247.81 148.77 256.76 C 131.18 270.96 117.96 291.02 108.24 311.24 C 105.60 316.88 100.23 320.34 94.00 320.49 C 86.81 320.70 80.15 315.69 78.28 308.77 C 77.10 304.67 77.76 300.50 79.65 296.73 C 86.89 281.83 95.37 267.70 105.79 254.79 C 118.08 239.61 133.06 226.27 150.73 217.69 C 163.59 211.47 177.64 207.96 191.96 208.00 Z" fill="#000000" />
<path d="M 264.97 240.07 C 269.31 239.94 273.65 240.01 278.00 240.00 C 433.33 240.00 588.67 240.00 744.00 240.00 C 749.45 240.02 754.65 239.80 760.07 240.56 C 770.76 242.09 780.61 246.43 789.49 252.50 C 805.69 263.57 818.39 280.00 828.18 296.81 C 839.76 317.00 847.91 338.98 853.61 361.51 C 859.39 384.53 862.69 408.20 863.68 431.91 C 852.78 432.18 841.85 431.84 830.95 432.05 C 825.83 432.23 821.15 435.17 818.43 439.46 C 815.16 444.50 815.16 451.51 818.43 456.54 C 821.15 460.83 825.83 463.77 830.95 463.95 C 841.86 464.17 852.79 463.80 863.70 464.10 C 863.64 478.74 864.15 493.39 864.93 508.00 C 868.32 563.18 877.01 619.24 894.15 671.91 C 905.02 705.18 919.40 737.03 938.94 766.16 C 934.54 771.10 929.65 775.71 924.90 780.31 C 921.13 778.79 917.59 776.85 913.95 775.05 C 899.74 767.95 885.49 760.80 871.28 753.71 C 863.97 749.99 854.74 752.42 850.47 759.47 C 846.99 765.55 844.31 772.09 840.85 778.21 C 836.33 776.51 832.29 774.15 827.92 772.03 C 815.48 765.85 803.06 759.54 790.60 753.41 C 783.42 750.09 774.57 752.68 770.47 759.47 C 766.99 765.55 764.31 772.09 760.85 778.21 C 756.33 776.51 752.29 774.15 747.92 772.03 C 735.48 765.85 723.06 759.54 710.60 753.41 C 703.42 750.09 694.57 752.68 690.47 759.47 C 686.99 765.55 684.31 772.10 680.85 778.21 C 676.33 776.51 672.29 774.15 667.92 772.03 C 655.48 765.85 643.06 759.54 630.60 753.41 C 623.42 750.09 614.57 752.68 610.47 759.47 C 606.99 765.55 604.31 772.09 600.85 778.21 C 596.33 776.51 592.29 774.15 587.92 772.03 C 575.48 765.85 563.06 759.54 550.60 753.41 C 543.42 750.09 534.57 752.68 530.47 759.47 C 526.99 765.55 524.31 772.10 520.85 778.21 C 517.04 776.80 513.54 774.83 509.91 773.03 C 497.71 766.91 485.48 760.85 473.30 754.69 C 469.49 752.61 465.47 751.39 461.10 752.23 C 454.77 753.15 451.00 758.56 446.67 762.67 C 441.83 767.29 437.39 772.40 432.30 776.74 C 415.64 757.42 402.06 734.91 391.06 711.94 C 377.60 683.67 367.43 653.59 359.59 623.31 C 349.55 584.28 343.00 544.12 339.19 504.02 C 337.60 486.37 336.37 468.71 336.03 451.00 C 336.25 402.26 328.31 351.91 308.98 306.96 C 298.38 282.18 284.11 259.17 264.97 240.07 Z" fill="#ffffff" />
<path d="M 183.49 336.85 C 192.37 335.03 201.70 336.08 209.86 340.08 C 222.92 346.09 232.62 358.35 239.17 370.83 C 250.61 392.62 255.32 418.59 255.95 443.00 C 256.52 466.92 253.16 491.89 244.24 514.20 C 238.81 527.69 230.80 541.15 219.19 550.20 C 210.58 556.87 200.04 560.79 189.05 559.91 C 175.61 558.93 164.18 551.44 155.63 541.38 C 144.19 527.90 137.16 510.05 133.05 493.01 C 127.08 467.26 126.43 440.04 130.81 413.99 C 134.06 395.37 140.30 375.84 151.26 360.26 C 159.23 349.00 169.76 339.95 183.49 336.85 Z" fill="#000000" />
<path d="M 190.30 368.18 C 194.43 367.26 198.42 370.04 201.34 372.65 C 206.69 377.76 210.56 384.74 213.56 391.44 C 219.89 406.16 222.81 422.59 223.74 438.51 C 224.86 459.41 222.48 481.34 215.02 500.98 C 211.80 509.14 207.35 517.83 200.81 523.82 C 197.66 526.48 193.79 528.97 189.49 527.61 C 184.07 525.79 179.88 520.84 176.77 516.24 C 169.63 505.56 165.58 492.58 163.02 480.09 C 158.63 456.89 158.93 432.51 164.46 409.52 C 167.16 398.58 171.33 387.17 178.01 378.00 C 180.96 373.96 185.26 369.39 190.30 368.18 Z" fill="#ffffff" />
<path d="M 383.95 432.01 C 399.97 431.99 416.03 431.99 432.05 432.01 C 438.57 431.89 444.48 436.06 446.91 442.05 C 449.75 449.19 447.07 457.50 440.55 461.57 C 435.68 464.80 430.52 463.88 425.00 464.01 C 410.99 463.94 396.96 464.09 382.95 463.95 C 374.69 463.67 367.82 456.23 367.98 448.00 C 367.82 439.35 375.27 431.81 383.95 432.01 Z" fill="#000000" />
<path d="M 503.00 431.99 C 517.01 432.06 531.04 431.91 545.05 432.05 C 553.31 432.33 560.18 439.77 560.02 448.00 C 560.18 456.65 552.73 464.19 544.05 463.99 C 528.03 464.01 511.97 464.01 495.95 463.99 C 489.43 464.11 483.52 459.94 481.09 453.95 C 478.25 446.81 480.93 438.50 487.45 434.43 C 492.32 431.20 497.47 432.12 503.00 431.99 Z" fill="#000000" />
<path d="M 606.95 432.05 C 620.96 431.91 634.99 432.06 649.00 431.99 C 652.54 432.04 656.27 431.73 659.75 432.41 C 667.19 434.09 672.60 441.38 671.99 449.01 C 671.62 457.26 664.34 464.18 656.05 463.99 C 640.03 464.01 623.97 464.01 607.95 463.99 C 599.27 464.19 591.82 456.65 591.98 448.00 C 591.82 439.77 598.69 432.33 606.95 432.05 Z" fill="#000000" />
<path d="M 718.95 432.05 C 732.96 431.91 746.99 432.06 761.00 431.99 C 764.54 432.04 768.27 431.73 771.75 432.41 C 779.19 434.09 784.60 441.38 783.99 449.01 C 783.62 457.26 776.34 464.18 768.05 463.99 C 752.03 464.01 735.97 464.01 719.95 463.99 C 711.27 464.19 703.82 456.65 703.98 448.00 C 703.82 439.77 710.69 432.33 718.95 432.05 Z" fill="#000000" />
</svg>