<?xml version="1.0" encoding="UTF-8" standalone="no"?>
<!DOCTYPE svg PUBLIC "-//W3C//DTD SVG 1.1//EN" "http://www.w3.org/Graphics/SVG/1.1/DTD/svg11.dtd">
<svg xmlns="http://www.w3.org/2000/svg" version="1.1" viewBox="0 0 1024 1024" width="1024.0pt" height="1024.0pt">
<path d="M 0.00 0.00 L 1024.00 0.00 L 1024.00 1024.00 L 0.00 1024.00 L 0.00 0.00 Z" fill="#ffffff" />
<path d="M 239.95 80.01 C 288.19 79.98 336.78 80.00 385.05 80.00 C 395.66 79.94 405.90 85.43 411.70 94.31 C 414.66 98.73 416.28 103.75 416.90 109.01 C 419.44 128.26 428.11 146.49 441.20 160.80 C 452.93 173.63 468.22 183.23 484.91 188.11 C 502.73 193.40 522.14 193.31 539.92 187.87 C 555.64 183.11 569.98 174.19 581.36 162.37 C 593.77 149.28 602.56 132.91 606.06 115.18 C 607.31 109.21 607.33 103.71 610.14 98.14 C 615.32 87.14 626.79 79.91 638.96 80.00 C 685.29 79.99 731.67 80.02 778.00 79.99 C 782.06 80.05 786.89 79.56 790.63 81.38 C 794.35 83.11 797.41 86.82 800.33 89.67 C 857.32 146.68 914.35 203.67 971.33 260.69 C 975.30 264.71 976.81 270.22 975.60 275.74 C 974.52 280.77 970.79 283.87 967.34 287.34 C 925.98 328.64 884.67 370.02 843.32 411.33 C 839.57 415.02 834.49 416.64 829.30 415.78 C 825.42 415.22 822.35 413.08 819.65 410.35 C 807.80 398.53 796.08 386.54 784.07 374.88 C 783.93 379.92 784.02 384.96 784.00 390.00 C 783.99 569.35 784.02 748.70 783.99 928.05 C 784.16 935.44 778.59 942.22 771.37 943.64 C 767.66 944.28 763.75 943.93 760.00 944.00 C 595.00 944.00 430.00 944.00 265.00 944.00 C 261.38 943.96 257.73 944.16 254.12 943.86 C 248.02 943.30 242.72 938.86 240.79 933.10 C 239.60 929.35 240.08 924.90 239.99 921.00 C 240.01 793.00 240.00 665.00 240.00 537.00 C 240.04 533.34 239.83 529.64 240.14 525.99 C 240.72 519.79 245.53 514.32 251.46 512.60 C 258.37 510.63 265.75 513.36 269.57 519.45 C 272.80 524.33 271.88 529.46 272.01 535.00 C 272.00 660.66 271.98 786.33 272.02 911.98 C 432.00 912.01 592.00 912.01 751.98 911.98 C 752.01 901.33 752.01 890.67 751.98 880.02 C 611.36 879.98 470.63 880.01 330.00 880.00 C 326.01 879.95 321.98 880.18 317.99 879.86 C 311.76 879.29 306.35 874.47 304.60 868.54 C 302.54 861.40 305.63 853.72 312.07 850.05 C 316.63 847.28 321.89 848.11 327.00 847.99 C 468.66 848.00 610.33 848.02 751.98 847.98 C 752.02 659.01 751.99 469.98 752.00 281.00 C 752.06 277.05 751.75 273.01 752.25 269.09 C 753.55 261.25 761.08 255.36 769.02 256.01 C 777.27 256.37 784.15 263.68 783.99 271.95 C 784.01 289.97 784.02 308.03 783.97 326.05 C 784.05 327.87 783.80 329.40 785.33 330.70 C 800.93 346.15 816.31 361.85 832.00 377.20 C 834.81 374.61 837.49 371.89 840.17 369.17 C 868.84 340.50 897.50 311.84 926.17 283.17 C 929.85 279.44 933.65 275.87 937.20 272.00 C 934.30 268.83 931.21 265.86 928.17 262.83 C 879.52 214.15 830.81 165.52 782.19 116.81 C 780.03 114.96 778.22 111.56 775.04 112.00 C 729.73 112.07 684.38 111.87 639.08 112.10 C 635.51 139.63 623.05 165.74 603.52 185.52 C 586.55 202.98 564.41 215.39 540.66 220.78 C 520.68 225.36 499.58 225.07 479.74 219.92 C 453.86 213.22 430.36 198.24 413.36 177.63 C 397.86 159.01 388.06 136.10 384.93 112.10 C 339.63 111.87 294.27 112.07 248.96 112.00 C 245.77 111.56 243.97 114.96 241.81 116.81 C 193.19 165.52 144.48 214.15 95.83 262.83 C 92.79 265.86 89.70 268.83 86.80 272.00 C 90.35 275.87 94.15 279.44 97.83 283.17 C 125.66 311.01 153.50 338.84 181.33 366.67 C 184.89 370.19 188.31 373.82 192.00 377.20 C 207.54 362.03 222.71 346.46 238.19 331.22 C 239.63 329.83 240.05 329.11 240.00 327.04 C 240.02 308.69 239.98 290.30 240.01 271.95 C 239.94 266.47 242.85 261.35 247.45 258.43 C 253.16 254.74 261.13 255.25 266.29 259.70 C 269.92 262.78 272.03 267.16 271.99 271.95 C 272.02 333.63 271.98 395.32 272.01 457.00 C 271.95 460.53 272.27 464.27 271.59 467.75 C 269.87 475.20 262.66 480.61 254.98 479.99 C 246.73 479.63 239.85 472.32 240.01 464.05 C 239.94 434.33 240.10 404.60 239.93 374.88 C 227.56 386.86 215.57 399.24 203.32 411.33 C 198.81 415.83 192.09 417.20 186.15 414.93 C 182.16 413.42 179.15 409.77 176.16 406.84 C 135.02 365.65 93.82 324.50 52.67 283.32 C 48.50 279.12 47.06 273.39 48.56 267.67 C 49.85 262.82 53.30 260.07 56.66 256.66 C 114.01 199.37 171.34 141.97 228.68 84.67 C 231.88 81.60 235.48 80.01 239.95 80.01 Z" fill="#000000" />
</svg>