<?xml version="1.0" encoding="UTF-8" standalone="no"?>
<!DOCTYPE svg PUBLIC "-//W3C//DTD SVG 1.1//EN" "http://www.w3.org/Graphics/SVG/1.1/DTD/svg11.dtd">
<svg xmlns="http://www.w3.org/2000/svg" version="1.1" viewBox="0 0 1024 1024" width="1024.0pt" height="1024.0pt">
<path d="M 0.00 0.00 L 1024.00 0.00 L 1024.00 1024.00 L 0.00 1024.00 L 0.00 0.00 Z" fill="#ffffff" />
<path d="M 127.95 112.02 C 165.23 111.99 202.76 112.00 240.05 112.01 C 245.36 111.98 250.16 114.53 253.18 118.86 C 256.97 124.19 256.97 131.81 253.18 137.14 C 250.17 141.46 245.34 144.03 240.04 143.99 C 208.12 144.07 175.99 143.87 144.08 144.09 C 143.94 165.33 143.94 186.67 144.08 207.91 C 147.71 208.14 151.37 207.97 155.00 208.00 C 393.00 208.00 631.00 208.00 869.00 208.00 C 872.63 207.97 876.29 208.14 879.91 207.92 C 880.06 186.67 880.06 165.33 879.92 144.09 C 876.29 143.86 872.63 144.03 869.00 144.00 C 683.67 144.00 498.33 144.00 313.00 144.00 C 309.34 143.96 305.65 144.17 302.00 143.86 C 296.23 143.31 291.22 139.24 289.08 133.92 C 286.27 126.79 288.94 118.48 295.45 114.42 C 300.33 111.22 305.48 112.11 311.00 111.99 C 506.01 112.02 701.04 111.98 896.04 112.01 C 904.77 111.87 912.11 119.26 911.99 127.97 C 912.01 158.30 912.00 188.72 911.99 219.05 C 911.95 223.50 913.82 228.08 914.75 232.47 C 925.89 278.25 934.05 324.91 941.19 371.46 C 961.40 506.97 971.01 644.95 974.59 781.86 C 974.78 788.91 974.67 795.95 975.18 803.00 C 975.55 834.01 976.10 865.04 975.99 896.05 C 976.15 904.74 968.70 912.14 960.03 911.99 C 823.69 912.02 687.34 911.98 551.00 912.01 C 546.28 911.90 540.97 912.63 536.71 910.30 C 531.95 907.87 528.82 903.27 528.09 897.99 C 522.81 866.22 517.47 834.44 512.23 802.66 L 511.77 802.69 C 506.53 834.45 501.19 866.22 495.91 897.99 C 495.19 903.27 492.05 907.87 487.29 910.30 C 483.07 912.61 477.68 911.91 473.00 912.01 C 339.67 911.99 206.33 912.00 73.00 912.00 C 69.39 911.96 65.74 912.16 62.13 911.87 C 56.29 911.34 51.20 907.26 49.06 901.85 C 47.92 899.00 47.99 896.04 47.98 893.02 C 48.21 739.15 55.44 583.92 74.57 431.17 C 75.19 422.51 82.22 415.76 90.98 415.99 C 100.35 416.10 107.83 424.71 106.47 434.04 C 96.76 511.36 90.14 589.19 85.99 667.00 C 84.56 690.30 83.87 713.67 82.73 737.00 C 82.35 756.68 81.32 776.32 81.20 796.01 C 80.41 809.64 80.75 823.34 80.37 837.00 C 80.29 851.29 79.96 865.63 80.08 879.91 C 83.71 880.14 87.37 879.97 91.00 880.00 C 212.67 880.00 334.33 879.99 456.00 880.01 C 459.44 879.94 463.01 880.26 466.42 879.73 C 476.45 820.40 486.27 760.51 496.26 701.12 C 497.51 693.60 504.37 687.86 512.00 687.98 C 519.63 687.86 526.49 693.60 527.74 701.12 C 537.72 760.49 547.56 820.42 557.58 879.73 C 560.99 880.26 564.56 879.94 568.00 880.01 C 689.67 879.99 811.33 880.00 933.00 880.00 C 936.63 879.97 940.29 880.14 943.92 879.91 C 944.21 871.29 943.64 862.64 943.84 854.00 C 943.41 834.01 943.62 813.98 942.76 794.01 C 942.66 776.00 941.70 758.01 941.35 739.99 C 940.01 705.63 938.42 671.29 936.32 636.96 C 929.58 530.97 918.80 424.27 900.20 319.67 C 895.37 293.10 890.12 266.44 883.65 240.22 C 881.48 239.91 879.21 239.98 877.01 239.98 C 856.73 240.09 836.35 239.86 816.09 240.08 C 815.86 256.05 816.09 272.08 815.99 288.06 C 816.06 293.80 812.88 299.12 807.93 301.95 C 802.03 305.35 794.15 304.51 789.17 299.83 C 785.82 296.72 784.01 292.65 784.01 288.06 C 783.91 272.08 784.14 256.05 783.92 240.09 C 757.35 239.94 730.65 239.94 704.09 240.08 C 703.86 256.05 704.09 272.08 703.99 288.06 C 704.07 294.04 700.58 299.59 695.29 302.30 C 689.22 305.41 681.44 304.24 676.66 299.34 C 673.61 296.26 672.02 292.40 672.01 288.06 C 671.91 272.08 672.14 256.05 671.92 240.09 C 670.28 239.96 668.65 239.97 667.01 239.97 C 620.82 240.09 574.22 239.87 528.09 240.08 C 527.89 243.05 528.01 246.03 527.99 249.00 C 528.02 352.98 527.96 457.08 528.02 561.04 C 529.88 560.55 530.59 559.11 531.83 557.82 C 549.69 539.64 559.90 514.48 560.00 489.00 C 560.00 435.67 560.00 382.33 560.00 329.00 C 560.03 325.34 559.83 321.65 560.14 318.00 C 560.64 312.56 564.43 307.62 569.37 305.38 C 575.11 302.79 582.21 303.83 586.83 308.17 C 590.18 311.28 591.99 315.35 591.99 319.94 C 592.02 376.29 591.99 432.65 592.00 489.00 C 591.95 508.37 587.54 527.70 579.19 545.18 C 567.87 569.04 549.28 589.21 526.42 602.43 C 521.52 605.14 516.87 608.44 511.00 607.99 C 502.72 607.62 495.86 600.36 496.01 592.06 C 495.99 478.37 496.01 364.69 496.00 251.00 C 495.97 247.37 496.14 243.71 495.92 240.09 C 494.28 239.96 492.65 239.97 491.01 239.97 C 444.82 240.09 398.22 239.87 352.09 240.08 C 351.86 256.05 352.09 272.08 351.99 288.06 C 352.07 294.05 348.58 299.60 343.28 302.30 C 337.23 305.41 329.43 304.24 324.66 299.34 C 321.61 296.26 320.02 292.41 320.01 288.06 C 319.91 272.08 320.14 256.05 319.92 240.09 C 293.35 239.94 266.65 239.94 240.08 240.08 C 239.86 256.05 240.09 272.08 239.99 288.06 C 240.06 293.80 236.88 299.12 231.93 301.95 C 226.03 305.35 218.15 304.51 213.17 299.83 C 209.82 296.72 208.01 292.65 208.01 288.06 C 207.91 272.08 208.14 256.05 207.92 240.09 C 187.65 239.86 167.27 240.09 146.99 239.98 C 144.79 239.98 142.52 239.91 140.35 240.22 C 129.88 283.12 122.18 326.90 115.34 370.51 C 114.07 379.14 105.75 385.22 97.14 383.84 C 88.24 382.59 82.06 373.81 83.83 364.99 C 91.23 317.32 99.79 269.51 111.69 222.74 C 112.22 219.56 111.97 216.21 112.01 213.00 C 112.00 184.69 111.98 156.25 112.01 127.95 C 111.85 119.27 119.27 111.86 127.95 112.02 Z" fill="#000000" />
</svg>